HIERARCHY
ROOT Hips
{
  OFFSET 58.3306 96.945 11.804
  CHANNELS 6 Xposition Yposition Zposition Zrotation Xrotation Yrotation
  JOINT spine
  {
    OFFSET 0 7.96568 0.458067
    CHANNELS 3 Zrotation Xrotation Yrotation
    JOINT spine1
    {
      OFFSET 0 10.2431 0
      CHANNELS 3 Zrotation Xrotation Yrotation
      JOINT spine2
      {
        OFFSET 0 9.81475 0
        CHANNELS 3 Zrotation Xrotation Yrotation
        JOINT Neck
        {
          OFFSET 0 25.1986 1.20138
          CHANNELS 3 Zrotation Xrotation Yrotation
          JOINT Head
          {
            OFFSET 0 7.61315 0
            CHANNELS 3 Zrotation Xrotation Yrotation
            End Site
            {
              OFFSET 0 18.4281 -6.07733
            }
          }
        }
        JOINT RightShoulder
        {
          OFFSET -4.1327 10.5992 -0.575451
          CHANNELS 3 Zrotation Xrotation Yrotation
          JOINT RightArm
          {
            OFFSET 0 13.9018 0
            CHANNELS 3 Zrotation Xrotation Yrotation
            JOINT RightArmRoll
            {
              OFFSET 0 7.01789 0
              CHANNELS 3 Zrotation Xrotation Yrotation
              JOINT RightForeArm
              {
                OFFSET 0 20.4406 0
                CHANNELS 3 Zrotation Xrotation Yrotation
                JOINT RightForeArmRoll
                {
                  OFFSET 0 7.87515 0
                  CHANNELS 3 Zrotation Xrotation Yrotation
                  JOINT RightHand
                  {
                    OFFSET 0 15.8037 0
                    CHANNELS 3 Zrotation Xrotation Yrotation
                    End Site
                    {
                      OFFSET 0 0 0
                    }
                  }
                }
              }
            }
          }
        }
        JOINT LeftShoulder
        {
          OFFSET 4.1327 10.5992 -0.575451
          CHANNELS 3 Zrotation Xrotation Yrotation
          JOINT LeftArm
          {
            OFFSET 0 13.9018 0
            CHANNELS 3 Zrotation Xrotation Yrotation
            JOINT LeftArmRoll
            {
              OFFSET 0 7.01789 0
              CHANNELS 3 Zrotation Xrotation Yrotation
              JOINT LeftForeArm
              {
                OFFSET 0 20.4406 0
                CHANNELS 3 Zrotation Xrotation Yrotation
                JOINT LeftForeArmRoll
                {
                  OFFSET 0 7.87516 0
                  CHANNELS 3 Zrotation Xrotation Yrotation
                  JOINT LeftHand
                  {
                    OFFSET 0 15.8037 0
                    CHANNELS 3 Zrotation Xrotation Yrotation
                    End Site
                    {
                      OFFSET 0 0 0
                    }
                  }
                }
              }
            }
          }
        }
      }
    }
  }
  JOINT RightUpLeg
  {
    OFFSET -7.06048 -1.2947 -1.0861
    CHANNELS 3 Zrotation Xrotation Yrotation
    JOINT RightUpLegRoll
    {
      OFFSET 0 18.5308 0
      CHANNELS 3 Zrotation Xrotation Yrotation
      JOINT RightLeg
      {
        OFFSET 0 -22.9476 0
        CHANNELS 3 Zrotation Xrotation Yrotation
        JOINT RightLegRoll
        {
          OFFSET 0 23.0226 0
          CHANNELS 3 Zrotation Xrotation Yrotation
          JOINT RightFoot
          {
            OFFSET 0 19.1625 0
            CHANNELS 3 Zrotation Xrotation Yrotation
            JOINT RightToeBase
            {
              OFFSET 0 16.0188 0
              CHANNELS 3 Zrotation Xrotation Yrotation
              End Site
              {
                OFFSET 0.00678979 7.75782 -0.894206
              }
            }
          }
        }
      }
    }
  }
  JOINT LeftUpLeg
  {
    OFFSET 7.06048 -1.2947 -1.0861
    CHANNELS 3 Zrotation Xrotation Yrotation
    JOINT LeftUpLegRoll
    {
      OFFSET 0 18.5309 0
      CHANNELS 3 Zrotation Xrotation Yrotation
      JOINT LeftLeg
      {
        OFFSET 0 22.9475 0
        CHANNELS 3 Zrotation Xrotation Yrotation
        JOINT LeftLegRoll
        {
          OFFSET 0 23.2355 0
          CHANNELS 3 Zrotation Xrotation Yrotation
          JOINT LeftFoot
          {
            OFFSET 0 18.9496 0
            CHANNELS 3 Zrotation Xrotation Yrotation
            JOINT LeftToeBase
            {
              OFFSET 0 16.0188 0
              CHANNELS 3 Zrotation Xrotation Yrotation
              End Site
              {
                OFFSET -0.0304289 7.75782 -0.894207
              }
            }
          }
        }
      }
    }
  }
}
MOTION
Frames: 13
Frame Time: 0.00208333
58.7255 96.9795 11.4809 0.852137 -6.51425 -0.872362 -0.240988 -0.274384 -0.166513 -0.481621 3.45095 -0.302205 -0.47865 5.09599 -0.294597 -3.39811 7.4512 3.81868 4.67665 10.1702 3.19458 65.8212 -2.0832 -1.96959 123.237 34.2193 -32.5606 -3.18055e-015 3.18055e-015 3.18055e-015 166.662 82.795 -172.836 -6.79981e-006 2.75477e-006 -3 8.02964 -4.9514 0.697649 -62.0286 -6.52335 4.19156 -114.57 34.5621 39.8818 -6.54914e-006 1.1578e-006 2.86861e-007 -172.782 81.2511 -178.654 -3.18781e-006 2.67401e-006 3.00109 -8.02959 -4.95143 -0.697643 175.279 -4.61 4.23045 180 7.01518e-015 178.803 178.539 6.70915 179.653 6.53085e-007 -2.57208e-006 0.152141 -20.0957 69.4793 20.8558 8.13649 25.2327 -3.48774 -175.606 -5.12488 -1.57377 4.54188e-006 -4.6773e-006 -1.25349 -2.12995 -6.71687 0.0292978 -4.2131e-007 -4.95531e-006 -0.105481 19.3408 68.613 -20.0706 -8.13649 25.2327 3.48773 
58.7237 96.9772 11.4782 0.849875 -6.50704 -0.858736 -0.239984 -0.275263 -0.166026 -0.479565 3.44852 -0.301242 -0.476605 5.09355 -0.293699 -3.39847 7.43967 3.81053 4.68197 10.1949 3.18627 65.7765 -2.08244 -1.96502 123.262 34.2459 -33.3316 2.8625e-014 6.36111e-015 9.54166e-015 166.686 82.8122 -172.943 -6.79981e-006 2.75477e-006 -3 8.02964 -4.9514 0.697649 -62.0083 -6.51335 4.18492 -114.649 34.7041 40.5705 -6.54914e-006 1.1578e-006 2.86861e-007 -172.87 81.2231 -178.476 -3.18781e-006 2.67401e-006 3.00109 -8.02959 -4.95143 -0.697643 175.283 -4.60738 4.22919 180 7.01518e-015 178.803 178.536 6.70131 179.653 6.53085e-007 -2.57208e-006 0.152148 -20.0938 69.4773 20.8538 8.13649 25.2327 -3.48774 -175.601 -5.10535 -1.57606 4.54188e-006 -4.6773e-006 -1.25344 -2.13079 -6.73047 0.028814 -4.2131e-007 -4.95531e-006 -0.105795 19.3437 68.6164 -20.0738 -8.13649 25.2327 3.48773 
58.7304 96.9824 11.4837 0.847767 -6.4995 -0.84551 -0.239072 -0.276211 -0.16559 -0.477705 3.44596 -0.300365 -0.474754 5.09099 -0.292884 -3.39525 7.42816 3.80243 4.68343 10.2187 3.17881 65.7339 -2.0825 -1.96108 123.283 34.2746 -34.1029 1.59028e-014 9.54166e-015 3.18055e-015 166.724 82.8256 -173.064 -6.79981e-006 2.75477e-006 -3 8.02964 -4.9514 0.697649 -61.9849 -6.50209 4.17736 -114.731 34.8395 41.251 -6.54914e-006 1.1578e-006 2.86861e-007 -172.974 81.193 -178.28 -3.18781e-006 2.67401e-006 3.00109 -8.02959 -4.95143 -0.697643 175.286 -4.60442 4.2288 180 7.01518e-015 178.802 178.532 6.69331 179.653 6.53085e-007 -2.57208e-006 0.152135 -20.0918 69.4752 20.8517 8.13649 25.2327 -3.48774 -175.596 -5.08599 -1.57807 4.54188e-006 -4.6773e-006 -1.2534 -2.13158 -6.74333 0.0283361 -4.2131e-007 -4.95531e-006 -0.106114 19.3464 68.6196 -20.0768 -8.13649 25.2327 3.48773 
58.7281 96.981 11.4783 0.845775 -6.49183 -0.832782 -0.238294 -0.277202 -0.165219 -0.476129 3.44335 -0.299597 -0.473187 5.08838 -0.292173 -3.38729 7.41698 3.79437 4.67995 10.2414 3.17243 65.6944 -2.0834 -1.95786 123.3 34.3065 -34.8712 -1.59028e-015 0 -0 166.778 82.8336 -173.201 -6.79981e-006 2.75477e-006 -3 8.02964 -4.9514 0.697649 -61.9578 -6.48938 4.16874 -114.815 34.9663 41.9211 -6.54914e-006 1.1578e-006 2.86861e-007 -173.098 81.1594 -178.063 -3.18781e-006 2.67401e-006 3.00109 -8.02959 -4.95143 -0.697643 175.289 -4.6013 4.22899 180 7.01518e-015 178.802 178.528 6.68535 179.653 6.53085e-007 -2.57208e-006 0.152108 -20.0897 69.473 20.8495 8.13649 25.2327 -3.48774 -175.591 -5.06711 -1.57986 4.54188e-006 -4.6773e-006 -1.25336 -2.13233 -6.75542 0.0278755 -4.2131e-007 -4.95531e-006 -0.106434 19.3489 68.6225 -20.0796 -8.13649 25.2327 3.48773 
58.733 96.9818 11.4666 0.843859 -6.48428 -0.82065 -0.237693 -0.278208 -0.164927 -0.474926 3.44075 -0.298962 -0.471991 5.08579 -0.291585 -3.37341 7.40644 3.78637 4.67044 10.2628 3.16736 65.6589 -2.08517 -1.95549 123.312 34.3431 -35.633 1.27222e-014 0 -3.18055e-015 166.85 82.8343 -173.359 -6.79981e-006 2.75477e-006 -3 8.02964 -4.9514 0.697649 -61.9264 -6.47503 4.1589 -114.899 35.0826 42.5783 -6.54914e-006 1.1578e-006 2.86861e-007 -173.245 81.121 -177.82 -3.18781e-006 2.67401e-006 3.00109 -8.02959 -4.95143 -0.697643 175.291 -4.5982 4.2295 180 7.01518e-015 178.802 178.523 6.67748 179.654 6.53085e-007 -2.57208e-006 0.152072 -20.0876 69.4708 20.8472 8.13649 25.2327 -3.48774 -175.587 -5.04902 -1.58152 4.54188e-006 -4.6773e-006 -1.25332 -2.13304 -6.76666 0.0274436 -4.2131e-007 -4.95531e-006 -0.106752 19.3512 68.6252 -20.0821 -8.13649 25.2327 3.48773 
58.7363 96.9822 11.4646 0.841983 -6.47705 -0.80921 -0.23731 -0.279203 -0.164726 -0.474183 3.43825 -0.298481 -0.471255 5.08329 -0.291141 -3.35246 7.39685 3.77841 4.6538 10.2829 3.16383 65.6283 -2.08784 -1.95404 123.32 34.386 -36.3853 9.54166e-015 1.59028e-014 6.36111e-015 166.943 82.8262 -173.538 -6.79981e-006 2.75477e-006 -3 8.02964 -4.9514 0.697649 -61.8902 -6.45884 4.14769 -114.984 35.1868 43.2202 -6.54914e-006 1.1578e-006 2.86861e-007 -173.419 81.0764 -177.548 -3.18781e-006 2.67401e-006 3.00109 -8.02959 -4.95143 -0.697643 175.293 -4.59532 4.23005 180 7.01517e-015 178.802 178.519 6.66988 179.654 6.53085e-007 -2.57208e-006 0.152031 -20.0855 69.4686 20.845 8.13649 25.2327 -3.48774 -175.583 -5.03205 -1.58314 4.54188e-006 -4.6773e-006 -1.25328 -2.13374 -6.77702 0.0270516 -4.2131e-007 -4.95531e-006 -0.107065 19.3533 68.6277 -20.0845 -8.13649 25.2327 3.48773 
58.7329 96.9806 11.4736 0.840108 -6.47038 -0.798559 -0.237188 -0.28016 -0.164631 -0.47399 3.43591 -0.298177 -0.471066 5.08094 -0.290861 -3.32326 7.38852 3.77049 4.62894 10.3015 3.16206 65.6036 -2.09142 -1.95363 123.326 34.4368 -37.1247 1.90833e-014 3.18055e-015 9.54166e-015 167.059 82.8075 -173.742 -6.79981e-006 2.75477e-006 -3 8.02964 -4.9514 0.697649 -61.8487 -6.44063 4.13496 -115.067 35.2772 43.8442 -6.54914e-006 1.1578e-006 2.86861e-007 -173.622 81.0242 -177.245 -3.18781e-006 2.67401e-006 3.00109 -8.02959 -4.95143 -0.697643 175.295 -4.59283 4.23037 180 7.01517e-015 178.801 178.515 6.66261 179.654 6.53085e-007 -2.57208e-006 0.15199 -20.0836 69.4665 20.8429 8.13649 25.2327 -3.48774 -175.579 -5.01651 -1.58479 4.54188e-006 -4.6773e-006 -1.25323 -2.13443 -6.78643 0.0267111 -4.2131e-007 -4.95531e-006 -0.10737 19.3552 68.6301 -20.0866 -8.13649 25.2327 3.48773 
58.7365 96.9814 11.4664 0.838196 -6.46448 -0.788796 -0.237369 -0.281051 -0.164655 -0.474435 3.4338 -0.298072 -0.471514 5.07883 -0.290764 -3.28465 7.38176 3.76262 4.59478 10.3183 3.16229 65.5858 -2.09593 -1.95435 123.329 34.4973 -37.8482 1.11319e-014 -9.54166e-015 -0 167.201 82.7764 -173.972 -6.79981e-006 2.75477e-006 -3 8.02964 -4.9514 0.697649 -61.8011 -6.42019 4.12056 -115.147 35.3524 44.4477 -6.54914e-006 1.1578e-006 2.86861e-007 -173.855 80.9631 -176.907 -3.18781e-006 2.67401e-006 3.00109 -8.02959 -4.95143 -0.697643 175.297 -4.59092 4.23019 180 7.01517e-015 178.801 178.512 6.65587 179.654 6.53085e-007 -2.57208e-006 0.151954 -20.0817 69.4646 20.841 8.13649 25.2327 -3.48774 -175.575 -5.00271 -1.58655 4.54188e-006 -4.6773e-006 -1.25319 -2.13512 -6.79485 0.0264332 -4.2131e-007 -4.95531e-006 -0.107663 19.3569 68.6322 -20.0886 -8.13649 25.2327 3.48773 
58.7408 96.9841 11.4531 0.83621 -6.45958 -0.780017 -0.237895 -0.281851 -0.164811 -0.475606 3.43199 -0.298189 -0.472685 5.07703 -0.290872 -3.23547 7.37689 3.75478 4.55021 10.3333 3.16474 65.5758 -2.10141 -1.9563 123.329 34.5693 -38.5528 2.06736e-014 1.59028e-014 1.27222e-014 167.368 82.7312 -174.229 -6.79981e-006 2.75477e-006 -3 8.02964 -4.9514 0.697649 -61.747 -6.39735 4.10434 -115.224 35.4108 45.0282 -6.54914e-006 1.1578e-006 2.86861e-007 -174.121 80.8916 -176.531 -3.18781e-006 2.67401e-006 3.00109 -8.02959 -4.95143 -0.697643 175.3 -4.58978 4.22924 180 7.01517e-015 178.801 178.51 6.64974 179.654 6.53085e-007 -2.57208e-006 0.151928 -20.0801 69.4628 20.8392 8.13649 25.2327 -3.48774 -175.571 -4.99097 -1.5885 4.54188e-006 -4.6773e-006 -1.25315 -2.13583 -6.80223 0.0262294 -4.2131e-007 -4.95531e-006 -0.107941 19.3584 68.634 -20.0903 -8.13649 25.2327 3.48773 
58.7366 96.9837 11.4529 0.834111 -6.45591 -0.77232 -0.238807 -0.282532 -0.165113 -0.477592 3.43056 -0.298551 -0.47467 5.0756 -0.291204 -3.17454 7.37421 3.74699 4.49416 10.3462 3.16965 65.5744 -2.10786 -1.95959 123.328 34.6548 -39.2354 3.18055e-015 3.18055e-015 -6.36111e-015 167.563 82.6702 -174.514 -6.79981e-006 2.75477e-006 -3 8.02964 -4.9514 0.697649 -61.6858 -6.37189 4.08614 -115.296 35.4514 45.5829 -6.54914e-006 1.1578e-006 2.86861e-007 -174.421 80.8083 -176.117 -3.18781e-006 2.67401e-006 3.00109 -8.02959 -4.95143 -0.697643 175.304 -4.58959 4.22724 180 7.01517e-015 178.801 178.509 6.64432 179.654 6.53085e-007 -2.57208e-006 0.151917 -20.0787 69.4613 20.8377 8.13649 25.2327 -3.48774 -175.567 -4.98162 -1.59073 4.54188e-006 -4.6773e-006 -1.25312 -2.13656 -6.8085 0.026111 -4.2131e-007 -4.95531e-006 -0.1082 19.3597 68.6357 -20.0919 -8.13649 25.2327 3.48773 
58.7364 96.9827 11.4464 0.831897 -6.4532 -0.765326 -0.240217 -0.283277 -0.165577 -0.480625 3.42915 -0.299195 -0.477698 5.07418 -0.291794 -3.0992 7.37627 3.73865 4.42474 10.3554 3.17701 65.5831 -2.11582 -1.96461 123.33 34.7611 -39.9067 6.36111e-015 0 -0 167.771 82.5909 -174.813 -6.79981e-006 2.75477e-006 -3 8.02964 -4.9514 0.697649 -61.6138 -6.34449 4.06622 -115.365 35.4799 46.1136 -6.54914e-006 1.1578e-006 2.86861e-007 -174.741 80.7144 -175.679 -3.18781e-006 2.67401e-006 3.00109 -8.02959 -4.95143 -0.697643 175.308 -4.59037 4.22452 180 7.01517e-015 178.801 178.51 6.63924 179.654 6.53085e-007 -2.57208e-006 0.151908 -20.0774 69.4599 20.8364 8.13649 25.2327 -3.48774 -175.563 -4.97436 -1.59311 4.54188e-006 -4.6773e-006 -1.25308 -2.13721 -6.81354 0.0260767 -4.2131e-007 -4.95531e-006 -0.108457 19.3608 68.6371 -20.0931 -8.13649 25.2327 3.48773 
58.7378 96.9834 11.4421 0.829608 -6.45101 -0.758647 -0.242157 -0.284251 -0.166199 -0.484771 3.42741 -0.300125 -0.481838 5.07245 -0.292645 -3.00884 7.38457 3.72934 4.34182 10.3601 3.18658 65.6016 -2.12564 -1.97154 123.336 34.8911 -40.579 0 3.18055e-015 -0 167.979 82.4937 -175.115 -6.79981e-006 2.75477e-006 -3 8.02964 -4.9514 0.697649 -61.529 -6.31583 4.04494 -115.435 35.503 46.6243 -6.54914e-006 1.1578e-006 2.86861e-007 -175.068 80.6123 -175.234 -3.18781e-006 2.67401e-006 3.00109 -8.02959 -4.95143 -0.697643 175.312 -4.59194 4.22163 180 7.01517e-015 178.8 178.511 6.63402 179.654 6.53085e-007 -2.57208e-006 0.15189 -20.0761 69.4585 20.835 8.13649 25.2327 -3.48774 -175.559 -4.96864 -1.59548 4.54188e-006 -4.6773e-006 -1.25304 -2.1377 -6.81733 0.0261124 -4.2131e-007 -4.95531e-006 -0.108725 19.3616 68.6381 -20.0941 -8.13649 25.2327 3.48773 
58.7432 96.9785 11.451 0.827274 -6.44928 -0.752361 -0.244551 -0.285402 -0.166963 -0.489874 3.42544 -0.301307 -0.486933 5.07048 -0.293727 -2.90538 7.39787 3.71929 4.24697 10.3608 3.19817 65.6289 -2.13709 -1.98014 123.346 35.0405 -41.2512 -6.36111e-015 -6.36111e-015 -6.36111e-015 168.189 82.3805 -175.417 -6.79981e-006 2.75477e-006 -3 8.02964 -4.9514 0.697649 -61.4333 -6.2858 4.02231 -115.505 35.5206 47.1158 -6.54914e-006 1.1578e-006 2.86861e-007 -175.402 80.5024 -174.781 -3.18781e-006 2.67401e-006 3.00109 -8.02959 -4.95143 -0.697643 175.317 -4.59414 4.21864 180 7.01517e-015 178.8 178.512 6.62873 179.654 6.53085e-007 -2.57208e-006 0.151863 -20.0748 69.4571 20.8336 8.13649 25.2327 -3.48774 -175.555 -4.96433 -1.59781 4.54188e-006 -4.6773e-006 -1.253 -2.13805 -6.81996 0.0262101 -4.2131e-007 -4.95531e-006 -0.109001 19.362 68.6388 -20.0947 -8.13649 25.2327 3.48773 
